<svg width="20" height="20" viewBox="0 0 20 20" fill="none" xmlns="http://www.w3.org/2000/svg">
<mask id="mask0_10639_22112" style="mask-type:alpha" maskUnits="userSpaceOnUse" x="0" y="0" width="20" height="20">
<rect width="20" height="20" fill="#D9D9D9"/>
</mask>
<g mask="url(#mask0_10639_22112)">
<path fill-rule="evenodd" clip-rule="evenodd" d="M7.80136 2.0001V7.67345H5.56377C5.18416 7.67345 4.9526 8.12233 5.22695 8.4388L9.62127 13.7603C9.81211 13.9898 10.153 13.9742 10.3343 13.7494L14.7864 8.42376C14.948 8.23021 14.9222 7.94228 14.73 7.78064C14.6431 7.70934 14.5392 7.67334 14.436 7.67334H12.1467L12.1474 2L7.80136 2.0001ZM16.7362 15.4737C17.4343 15.4737 18 16.0394 18 16.7369C18 17.4343 17.4343 18 16.7362 18H3.26378C2.56568 18 2 17.4343 2 16.7369C2 16.0394 2.56568 15.4737 3.26378 15.4737H16.7362Z" fill="currentColor"/>
</g>
</svg>
